<?xml version="1.0" encoding="utf-8"?>
<svg  viewBox="0 0 512 512" fill="none">
  <g>
    <rect width="512" height="512" />
    <path id="Shape" d="M447.97 434.225C345.687 536.592 179.145 536.592 76.7757 434.225C-25.5919 331.855 -25.5919 165.318 76.7757 62.9923C103.865 35.9488 136.889 15.3119 174.869 1.85471C186.834 -2.33298 200.08 0.702183 208.964 9.63126C217.938 18.6034 220.971 31.8473 216.743 43.7254C191.022 116.271 208.539 194.798 262.373 248.632C316.122 302.42 394.649 319.897 467.28 294.262C479.159 290.033 492.446 293.069 501.375 302.041C510.349 310.925 513.339 324.214 509.108 336.135C495.735 374.113 475.057 407.137 447.97 434.225C447.97 434.225 447.97 434.225 447.97 434.225ZM123.175 109.391C46.3973 186.168 46.3973 311.093 123.175 387.827C205.207 469.9 344.918 462.507 416.439 371.076C342.694 375.69 270.063 349.073 215.974 295.025C161.884 240.979 135.31 168.347 139.922 94.605C134.028 99.2233 128.429 104.137 123.175 109.391C123.175 109.391 123.175 109.391 123.175 109.391Z" fill="currentColor" transform="translate(0 0)" />
  </g>
</svg>